<svg xmlns="http://www.w3.org/2000/svg" viewBox="0 0 1920 993" preserveAspectRatio="xMidYMid" width="1920" height="993" style="shape-rendering: auto; display: block; background: rgb(153, 204, 255);"><g data-idx="1"><defs data-idx="2">
<linearGradient id="lg-0.6590519274487807" x1="0" x2="0" y1="0" y2="1" data-idx="3">
  <stop stop-color="#3184ce" offset="0" data-idx="4"></stop>
  <stop stop-color="#e9f6ff" offset="1" data-idx="5"></stop>
</linearGradient>
</defs>
<rect x="0" y="0" width="1920" height="993" fill="url(#lg-0.6590519274487807)" data-idx="6"></rect><circle cx="0" cy="515.4359902700883" r="87.97000810825973" fill="#91cbf0" data-idx="7" transform="matrix(1,0,0,1,-0.39791202545166016,0)">

</circle><circle cx="87.97000810825973" cy="541.3836273742221" r="73.04003152741286" fill="#91cbf0" data-idx="9" transform="matrix(1,0,0,1,-0.2988548278808594,0)">

</circle><circle cx="161.0100396356726" cy="556.5849634659497" r="64.49646651848087" fill="#91cbf0" data-idx="11" transform="matrix(1,0,0,1,-0.2154560089111328,0)">

</circle><circle cx="225.50650615415347" cy="556.0679836706458" r="70.72304043361001" fill="#91cbf0" data-idx="13" transform="matrix(1,0,0,1,-0.1468830108642578,0)">

</circle><circle cx="296.2295465877635" cy="591.9465992648063" r="35.01620246678864" fill="#91cbf0" data-idx="15" transform="matrix(1,0,0,1,-0.09233760833740234,0)">

</circle><circle cx="331.2457490545521" cy="549.2876067169296" r="91.24378012584413" fill="#91cbf0" data-idx="17" transform="matrix(1,0,0,1,-0.05106830596923828,0)">

</circle><circle cx="422.48952918039623" cy="567.9394077545667" r="78.97236630873554" fill="#91cbf0" data-idx="19" transform="matrix(1,0,0,1,-0.02236175537109375,0)">

</circle><circle cx="501.4618954891318" cy="587.6729399509451" r="58.14489085412977" fill="#91cbf0" data-idx="21" transform="matrix(1,0,0,1,-0.005549430847167969,0)">

</circle><circle cx="559.6067863432615" cy="603.1670876035793" r="35.63079850141334" fill="#91cbf0" data-idx="23" transform="matrix(1,0,0,1,-9.5367431640625e-7,0)">

</circle><circle cx="595.2375848446749" cy="590.6304280549081" r="66.60680088360473" fill="#91cbf0" data-idx="25" transform="matrix(1,0,0,1,-0.005311951972544193,0)">

</circle><circle cx="661.8443857282796" cy="594.9645750994591" r="69.8572789625591" fill="#91cbf0" data-idx="27" transform="matrix(1,0,0,1,-0.02187485247850418,0)">

</circle><circle cx="731.7016646908387" cy="609.4066271261013" r="40.62534352937435" fill="#91cbf0" data-idx="29" transform="matrix(1,0,0,1,-0.05031699687242508,0)">

</circle><circle cx="772.3270082202131" cy="602.1361592376891" r="80.41153107185744" fill="#91cbf0" data-idx="31" transform="matrix(1,0,0,1,-0.09130731970071793,0)">

</circle><circle cx="852.7385392920705" cy="609.8199809237608" r="83.38517116922058" fill="#91cbf0" data-idx="33" transform="matrix(1,0,0,1,-0.14555701613426208,0)">

</circle><circle cx="936.1237104612911" cy="620.0468187151283" r="31.93733375787143" fill="#91cbf0" data-idx="35" transform="matrix(1,0,0,1,-0.2138194739818573,0)">

</circle><circle cx="968.0610442191626" cy="620.2567341903483" r="73.76372484198069" fill="#91cbf0" data-idx="37" transform="matrix(1,0,0,1,-0.29688918590545654,0)">

</circle><circle cx="1041.8247690611433" cy="613.4712850375223" r="73.60817560611127" fill="#91cbf0" data-idx="39" transform="matrix(1,0,0,1,-0.39559853076934814,0)">

</circle><circle cx="1115.4329446672546" cy="604.0023896163417" r="87.48523896292998" fill="#91cbf0" data-idx="41" transform="matrix(1,0,0,1,-0.5108120441436768,0)">

</circle><circle cx="1202.9181836301846" cy="602.0412763124584" r="62.4365731843411" fill="#91cbf0" data-idx="43" transform="matrix(1,0,0,1,-0.643418550491333,0)">

</circle><circle cx="1265.3547568145257" cy="605.5891160736008" r="40.375028932684664" fill="#91cbf0" data-idx="45" transform="matrix(1,0,0,1,-0.7943122386932373,0)">

</circle><circle cx="1305.7297857472104" cy="586.6336682304108" r="79.52183048461347" fill="#91cbf0" data-idx="47" transform="matrix(1,0,0,1,-0.964379072189331,0)">

</circle><circle cx="1385.2516162318238" cy="602.4230482808758" r="34.94768933975688" fill="#91cbf0" data-idx="49" transform="matrix(1,0,0,1,-1.154464840888977,0)">

</circle><circle cx="1420.1993055715807" cy="596.4123663825305" r="42.74258273715709" fill="#91cbf0" data-idx="51" transform="matrix(1,0,0,1,-1.3653372526168823,0)">

</circle><circle cx="1462.9418883087378" cy="579.6295490040563" r="65.80553651645397" fill="#91cbf0" data-idx="53" transform="matrix(1,0,0,1,-1.5976357460021973,0)">

</circle><circle cx="1528.7474248251917" cy="574.0855743189413" r="65.98982062447575" fill="#91cbf0" data-idx="55" transform="matrix(1,0,0,1,-1.851808786392212,0)">

</circle><circle cx="1594.7372454496674" cy="571.3164359665939" r="62.619377563966665" fill="#91cbf0" data-idx="57" transform="matrix(1,0,0,1,-2.128035545349121,0)">

</circle><circle cx="1657.3566230136341" cy="580.3600183468651" r="46.62174882918156" fill="#91cbf0" data-idx="59" transform="matrix(1,0,0,1,-2.426137685775757,0)">

</circle><circle cx="1703.9783718428157" cy="581.3227262589346" r="42.664975480710055" fill="#91cbf0" data-idx="61" transform="matrix(1,0,0,1,-2.7454824447631836,0)">

</circle><circle cx="1746.6433473235259" cy="531.3815984311699" r="91.14005921361702" fill="#91cbf0" data-idx="63" transform="matrix(1,0,0,1,-3.0848770141601562,0)">

</circle><circle cx="1837.7834065371428" cy="521.5219376895311" r="90.66296908291761" fill="#91cbf0" data-idx="65" transform="matrix(1,0,0,1,-3.4425032138824463,0)">

</circle><circle cx="1928.4463756200605" cy="573.6922177350119" r="39.07931999617318" fill="#91cbf0" data-idx="67" transform="matrix(1,0,0,1,-3.8158605098724365,0)">

</circle><circle cx="1967.5256956162336" cy="538.7862882966657" r="65.27969425379263" fill="#91cbf0" data-idx="69" transform="matrix(1,0,0,1,-4.201770782470703,0)">

</circle><circle cx="0" cy="623.3878319045451" r="49.67680674621238" fill="#a8d1f5" data-idx="71" transform="matrix(1,0,0,1,-1.86041259765625,0)">

</circle><circle cx="49.67680674621238" cy="581.1491697868096" r="89.50740217802674" fill="#a8d1f5" data-idx="73" transform="matrix(1,0,0,1,-1.3725252151489258,0)">

</circle><circle cx="139.1842089242391" cy="645.7264474707963" r="36.3282996593942" fill="#a8d1f5" data-idx="75" transform="matrix(1,0,0,1,-0.970219612121582,0)">

</circle><circle cx="175.5125085836333" cy="597.2019332055057" r="87.49464355597426" fill="#a8d1f5" data-idx="77" transform="matrix(1,0,0,1,-0.6480159759521484,0)">

</circle><circle cx="263.00715213960757" cy="639.2031539310323" r="50.26949266801114" fill="#a8d1f5" data-idx="79" transform="matrix(1,0,0,1,-0.39906883239746094,0)">

</circle><circle cx="313.2766448076187" cy="644.2388409704486" r="47.94774608753214" fill="#a8d1f5" data-idx="81" transform="matrix(1,0,0,1,-0.21627521514892578,0)">

</circle><circle cx="361.22439089515086" cy="626.8431048843281" r="75.02896812998074" fill="#a8d1f5" data-idx="83" transform="matrix(1,0,0,1,-0.09285354614257812,0)">

</circle><circle cx="436.2533590251316" cy="636.790132112735" r="70.58354444240884" fill="#a8d1f5" data-idx="85" transform="matrix(1,0,0,1,-0.022606849670410156,0)">

</circle><circle cx="506.8369034675404" cy="636.5596401440064" r="81.98436317758208" fill="#a8d1f5" data-idx="87" transform="matrix(1,0,0,1,-0.0000019073486328125,0)">

</circle><circle cx="588.8212666451225" cy="655.2127532658642" r="59.88973879614779" fill="#a8d1f5" data-idx="89" transform="matrix(1,0,0,1,-0.021634289994835854,0)">

</circle><circle cx="648.7110054412702" cy="654.685846315063" r="72.76621834979801" fill="#a8d1f5" data-idx="91" transform="matrix(1,0,0,1,-0.09079642593860626,0)">

</circle><circle cx="721.4772237910682" cy="659.8124914626978" r="77.77037951961874" fill="#a8d1f5" data-idx="93" transform="matrix(1,0,0,1,-0.21300670504570007,0)">

</circle><circle cx="799.2476033106869" cy="673.6855629401786" r="46.354205606394906" fill="#a8d1f5" data-idx="95" transform="matrix(1,0,0,1,-0.3944488763809204,0)">

</circle><circle cx="845.6018089170818" cy="675.4834971410446" r="52.56378820540778" fill="#a8d1f5" data-idx="97" transform="matrix(1,0,0,1,-0.6418930888175964,0)">

</circle><circle cx="898.1655971224897" cy="679.8896199702799" r="40.24141752779965" fill="#a8d1f5" data-idx="99" transform="matrix(1,0,0,1,-0.9624403715133667,0)">

</circle><circle cx="938.4070146502893" cy="681.8989675340927" r="40.79222758967081" fill="#a8d1f5" data-idx="101" transform="matrix(1,0,0,1,-1.3629505634307861,0)">

</circle><circle cx="979.1992422399601" cy="682.1105916077408" r="37.060145651288686" fill="#a8d1f5" data-idx="103" transform="matrix(1,0,0,1,-1.848950982093811,0)">

</circle><circle cx="1016.2593878912488" cy="678.9273380684468" r="57.912637647970534" fill="#a8d1f5" data-idx="105" transform="matrix(1,0,0,1,-2.42280912399292,0)">

</circle><circle cx="1074.1720255392192" cy="675.5285294318068" r="52.35237288928889" fill="#a8d1f5" data-idx="107" transform="matrix(1,0,0,1,-3.081120014190674,0)">

</circle><circle cx="1126.5243984285082" cy="673.5411443931547" r="45.44129603161357" fill="#a8d1f5" data-idx="109" transform="matrix(1,0,0,1,-3.811765670776367,0)">

</circle><circle cx="1171.9656944601218" cy="661.4882501756656" r="81.18955240988412" fill="#a8d1f5" data-idx="111" transform="matrix(1,0,0,1,-4.592172145843506,0)">

</circle><circle cx="1253.1552468700058" cy="666.3927618028188" r="45.31998215824633" fill="#a8d1f5" data-idx="113" transform="matrix(1,0,0,1,-5.390657424926758,0)">

</circle><circle cx="1298.4752290282522" cy="651.139900806986" r="75.30264305481484" fill="#a8d1f5" data-idx="115" transform="matrix(1,0,0,1,-6.171813488006592,0)">

</circle><circle cx="1373.777872083067" cy="639.8112157483201" r="83.50138983364398" fill="#a8d1f5" data-idx="117" transform="matrix(1,0,0,1,-6.903810024261475,0)">

</circle><circle cx="1457.279261916711" cy="656.8535593776085" r="42.06319084630678" fill="#a8d1f5" data-idx="119" transform="matrix(1,0,0,1,-7.563840866088867,0)">

</circle><circle cx="1499.3424527630177" cy="654.4865997694573" r="42.29357445826174" fill="#a8d1f5" data-idx="121" transform="matrix(1,0,0,1,-8.1395845413208,0)">

</circle><circle cx="1541.6360272212794" cy="626.8400230917795" r="77.24415170981821" fill="#a8d1f5" data-idx="123" transform="matrix(1,0,0,1,-8.627472877502441,0)">

</circle><circle cx="1618.8801789310976" cy="653.766531297657" r="35.4947313786473" fill="#a8d1f5" data-idx="125" transform="matrix(1,0,0,1,-9.029781341552734,0)">

</circle><circle cx="1654.3749103097448" cy="646.9422844269959" r="41.5426479702955" fill="#a8d1f5" data-idx="127" transform="matrix(1,0,0,1,-9.351984977722168,0)">

</circle><circle cx="1695.9175582800403" cy="637.6984517846108" r="49.24632951687281" fill="#a8d1f5" data-idx="129" transform="matrix(1,0,0,1,-9.600932121276855,0)">

</circle><circle cx="1745.163887796913" cy="596.9786523537962" r="87.64676927521016" fill="#a8d1f5" data-idx="131" transform="matrix(1,0,0,1,-9.78372573852539,0)">

</circle><circle cx="1832.8106570721231" cy="644.6122620648459" r="35.185398000457205" fill="#a8d1f5" data-idx="133" transform="matrix(1,0,0,1,-9.907146453857422,0)">

</circle><circle cx="1867.9960550725802" cy="585.5232324992708" r="85.88298766821187" fill="#a8d1f5" data-idx="135" transform="matrix(1,0,0,1,-9.97739315032959,0)">

</circle><circle cx="1953.879042740792" cy="604.9747051382429" r="62.80466053220229" fill="#a8d1f5" data-idx="137" transform="matrix(1,0,0,1,-9.999998092651367,0)">

</circle><circle cx="0" cy="655.0623233516161" r="74.94806387365327" fill="#bdd7f8" data-idx="139" transform="matrix(1,0,0,1,-4.613615036010742,0)">

</circle><circle cx="74.94806387365327" cy="691.6535733403271" r="48.21992878127087" fill="#bdd7f8" data-idx="141" transform="matrix(1,0,0,1,-3.4583053588867188,0)">

</circle><circle cx="123.16799265492415" cy="658.7897243416917" r="82.415849204256" fill="#bdd7f8" data-idx="143" transform="matrix(1,0,0,1,-2.4394845962524414,0)">

</circle><circle cx="205.58384185918015" cy="680.5700851455166" r="68.32294261911275" fill="#bdd7f8" data-idx="145" transform="matrix(1,0,0,1,-1.6081485748291016,0)">

</circle><circle cx="273.90678447829293" cy="705.5068532787013" r="46.04989039720271" fill="#bdd7f8" data-idx="147" transform="matrix(1,0,0,1,-0.9721622467041016,0)">

</circle><circle cx="319.95667487549565" cy="702.2323375229151" r="53.455959368082446" fill="#bdd7f8" data-idx="149" transform="matrix(1,0,0,1,-0.5161685943603516,0)">

</circle><circle cx="373.4126342435781" cy="710.0770289883556" r="47.62867126073907" fill="#bdd7f8" data-idx="151" transform="matrix(1,0,0,1,-0.21709251403808594,0)">

</circle><circle cx="421.04130550431717" cy="698.5850771126474" r="68.89570330547765" fill="#bdd7f8" data-idx="153" transform="matrix(1,0,0,1,-0.05182170867919922,0)">

</circle><circle cx="489.9370088097948" cy="716.8162851130653" r="47.96585209241535" fill="#bdd7f8" data-idx="155" transform="matrix(1,0,0,1,-0.0000057220458984375,0)">

</circle><circle cx="537.9028609022101" cy="728.4158056747303" r="31.431995697895452" fill="#bdd7f8" data-idx="157" transform="matrix(1,0,0,1,-0.049575645476579666,0)">

</circle><circle cx="569.3348566001056" cy="709.6771404278288" r="72.33378287043926" fill="#bdd7f8" data-idx="159" transform="matrix(1,0,0,1,-0.21219834685325623,0)">

</circle><circle cx="641.6686394705448" cy="728.8121214621156" r="40.68183168874202" fill="#bdd7f8" data-idx="161" transform="matrix(1,0,0,1,-0.5081541538238525,0)">

</circle><circle cx="682.3504711592868" cy="728.5399228705411" r="47.42691895984327" fill="#bdd7f8" data-idx="163" transform="matrix(1,0,0,1,-0.9605119228363037,0)">

</circle><circle cx="729.7773901191301" cy="734.2490028056225" r="37.35861460328567" fill="#bdd7f8" data-idx="165" transform="matrix(1,0,0,1,-1.592408537864685,0)">

</circle><circle cx="767.1360047224158" cy="731.3633459324057" r="56.56485150778899" fill="#bdd7f8" data-idx="167" transform="matrix(1,0,0,1,-2.419497013092041,0)">

</circle><circle cx="823.7008562302047" cy="731.2693269187827" r="80.59139743039326" fill="#bdd7f8" data-idx="169" transform="matrix(1,0,0,1,-3.434629440307617,0)">

</circle><circle cx="904.292253660598" cy="738.5739804324904" r="92.28188163791411" fill="#bdd7f8" data-idx="171" transform="matrix(1,0,0,1,-4.587896347045898,0)">

</circle><circle cx="996.5741352985121" cy="741.6958957262049" r="72.27193199407236" fill="#bdd7f8" data-idx="173" transform="matrix(1,0,0,1,-5.781349182128906,0)">

</circle><circle cx="1068.8460672925844" cy="738.5500906811975" r="47.40573162989754" fill="#bdd7f8" data-idx="175" transform="matrix(1,0,0,1,-6.900060176849365,0)">

</circle><circle cx="1116.2517989224818" cy="733.0357564700822" r="61.25622162393574" fill="#bdd7f8" data-idx="177" transform="matrix(1,0,0,1,-7.859554290771484,0)">

</circle><circle cx="1177.5080205464176" cy="728.8819800636198" r="59.28248492497474" fill="#bdd7f8" data-idx="179" transform="matrix(1,0,0,1,-8.625088691711426,0)">

</circle><circle cx="1236.7905054713924" cy="719.0807831257573" r="74.91360104307196" fill="#bdd7f8" data-idx="181" transform="matrix(1,0,0,1,-9.198753356933594,0)">

</circle><circle cx="1311.7041065144645" cy="725.9182418731173" r="43.404117889872744" fill="#bdd7f8" data-idx="183" transform="matrix(1,0,0,1,-9.599778175354004,0)">

</circle><circle cx="1355.1082244043373" cy="699.3501386595499" r="92.43009083756029" fill="#bdd7f8" data-idx="185" transform="matrix(1,0,0,1,-9.85179328918457,0)">

</circle><circle cx="1447.5383152418976" cy="712.9702219742233" r="52.55755623618605" fill="#bdd7f8" data-idx="187" transform="matrix(1,0,0,1,-9.977148056030273,0)">

</circle><circle cx="1500.0958714780836" cy="705.4113163912704" r="58.63949080060473" fill="#bdd7f8" data-idx="189" transform="matrix(1,0,0,1,-9.994918823242188,0)">

</circle><circle cx="1558.7353622786884" cy="677.5439544850357" r="90.13136656333474" fill="#bdd7f8" data-idx="191" transform="matrix(1,0,0,1,-9.909711837768555,0)">

</circle><circle cx="1648.8667288420231" cy="681.5803979717524" r="73.65093928673866" fill="#bdd7f8" data-idx="193" transform="matrix(1,0,0,1,-9.705058097839355,0)">

</circle><circle cx="1722.5176681287617" cy="715.3789963402809" r="31.077054235251797" fill="#bdd7f8" data-idx="195" transform="matrix(1,0,0,1,-9.35962200164795,0)">

</circle><circle cx="1753.5947223640135" cy="682.0323887543327" r="63.47583669215447" fill="#bdd7f8" data-idx="197" transform="matrix(1,0,0,1,-8.849839210510254,0)">

</circle><circle cx="1817.070559056168" cy="680.8941891247553" r="59.837137279189704" fill="#bdd7f8" data-idx="199" transform="matrix(1,0,0,1,-8.153889656066895,0)">

</circle><circle cx="1876.9076963353575" cy="682.3325431320199" r="54.67722181279162" fill="#bdd7f8" data-idx="201" transform="matrix(1,0,0,1,-7.261604309082031,0)">

</circle><circle cx="1931.5849181481492" cy="636.5207308231511" r="89.3214928725831" fill="#bdd7f8" data-idx="203" transform="matrix(1,0,0,1,-6.192314147949219,0)">

</circle><circle cx="0" cy="756.7264195892699" r="41.89465034227508" fill="#cfddfa" data-idx="205" transform="matrix(1,0,0,1,-7.583802223205566,0)">

</circle><circle cx="41.89465034227508" cy="708.5227750268643" r="85.80908498995112" fill="#cfddfa" data-idx="207" transform="matrix(1,0,0,1,-6.196385383605957,0)">

</circle><circle cx="127.70373533222619" cy="729.2959621961531" r="74.68882522005681" fill="#cfddfa" data-idx="209" transform="matrix(1,0,0,1,-4.617879390716553,0)">

</circle><circle cx="202.392560552283" cy="729.3733016260535" r="81.97036547638453" fill="#cfddfa" data-idx="211" transform="matrix(1,0,0,1,-3.1036901473999023,0)">

</circle><circle cx="284.3629260286675" cy="757.4089690071759" r="58.71913535038282" fill="#cfddfa" data-idx="213" transform="matrix(1,0,0,1,-1.8661231994628906,0)">

</circle><circle cx="343.08206137905034" cy="773.9314147200056" r="42.882313137355624" fill="#cfddfa" data-idx="215" transform="matrix(1,0,0,1,-0.9741001129150391,0)">

</circle><circle cx="385.964374516406" cy="783.2675369537678" r="33.07455076675966" fill="#cfddfa" data-idx="217" transform="matrix(1,0,0,1,-0.40137672424316406,0)">

</circle><circle cx="419.03892528316567" cy="757.9035161956248" r="72.6063091767921" fill="#cfddfa" data-idx="219" transform="matrix(1,0,0,1,-0.09388542175292969,0)">

</circle><circle cx="491.64523445995775" cy="778.1682375747966" r="49.2477319272429" fill="#cfddfa" data-idx="221" transform="matrix(1,0,0,1,-0.00001049041748046875,0)">

</circle><circle cx="540.8929663872007" cy="769.3925563256306" r="71.78585069343174" fill="#cfddfa" data-idx="223" transform="matrix(1,0,0,1,-0.08978430181741714,0)">

</circle><circle cx="612.6788170806324" cy="777.6669587261638" r="67.56407087475797" fill="#cfddfa" data-idx="225" transform="matrix(1,0,0,1,-0.3921666741371155,0)">

</circle><circle cx="680.2428879553903" cy="791.3314689113062" r="44.80609904550441" fill="#cfddfa" data-idx="227" transform="matrix(1,0,0,1,-0.9585923552513123,0)">

</circle><circle cx="725.0489870008947" cy="791.8157720650755" r="51.70176622301191" fill="#cfddfa" data-idx="229" transform="matrix(1,0,0,1,-1.8432765007019043,0)">

</circle><circle cx="776.7507532239066" cy="786.8124440439987" r="88.13157515749208" fill="#cfddfa" data-idx="231" transform="matrix(1,0,0,1,-3.0736446380615234,0)">

</circle><circle cx="864.8823283813987" cy="798.2109725346279" r="73.9213003498568" fill="#cfddfa" data-idx="233" transform="matrix(1,0,0,1,-4.583643436431885,0)">

</circle><circle cx="938.8036287312555" cy="805.6536228945157" r="50.81538112024325" fill="#cfddfa" data-idx="235" transform="matrix(1,0,0,1,-6.163645267486572,0)">

</circle><circle cx="989.6190098514987" cy="804.4642345333144" r="68.49021569321097" fill="#cfddfa" data-idx="237" transform="matrix(1,0,0,1,-7.557194709777832,0)">

</circle><circle cx="1058.1092255447097" cy="800.8992727004517" r="49.74641082468316" fill="#cfddfa" data-idx="239" transform="matrix(1,0,0,1,-8.622702598571777,0)">

</circle><circle cx="1107.8556363693929" cy="799.5697967271493" r="40.20247563258258" fill="#cfddfa" data-idx="241" transform="matrix(1,0,0,1,-9.348934173583984,0)">

</circle><circle cx="1148.0581120019754" cy="788.7412172663486" r="77.67293860084946" fill="#cfddfa" data-idx="243" transform="matrix(1,0,0,1,-9.782093048095703,0)">

</circle><circle cx="1225.7310506028248" cy="790.968919442839" r="48.26257381903587" fill="#cfddfa" data-idx="245" transform="matrix(1,0,0,1,-9.976902961730957,0)">

</circle><circle cx="1273.9936244218607" cy="790.4067738453136" r="42.27659382635825" fill="#cfddfa" data-idx="247" transform="matrix(1,0,0,1,-9.978839874267578,0)">

</circle><circle cx="1316.270218248219" cy="765.8078161139225" r="92.49649681889102" fill="#cfddfa" data-idx="249" transform="matrix(1,0,0,1,-9.788605690002441,0)">

</circle><circle cx="1408.76671506711" cy="762.380776810749" r="79.54105630597579" fill="#cfddfa" data-idx="251" transform="matrix(1,0,0,1,-9.361133575439453,0)">

</circle><circle cx="1488.3077713730859" cy="763.0028599706692" r="66.62349851864731" fill="#cfddfa" data-idx="253" transform="matrix(1,0,0,1,-8.6417875289917,0)">

</circle><circle cx="1554.931269891733" cy="765.8702708669301" r="55.306864795396926" fill="#cfddfa" data-idx="255" transform="matrix(1,0,0,1,-7.583802223205566,0)">

</circle><circle cx="1610.23813468713" cy="743.2585420489189" r="78.42229429592103" fill="#cfddfa" data-idx="257" transform="matrix(1,0,0,1,-6.196385383605957,0)">

</circle><circle cx="1688.6604289830511" cy="740.1720850098268" r="73.37070858472833" fill="#cfddfa" data-idx="259" transform="matrix(1,0,0,1,-4.617865085601807,0)">

</circle><circle cx="1762.0311375677795" cy="724.5605912320802" r="82.23063161155912" fill="#cfddfa" data-idx="261" transform="matrix(1,0,0,1,-3.103677749633789,0)">

</circle><circle cx="1844.2617691793387" cy="733.9353694991757" r="66.10226342241049" fill="#cfddfa" data-idx="263" transform="matrix(1,0,0,1,-1.8661136627197266,0)">

</circle><circle cx="1910.3640326017492" cy="749.5188891335705" r="48.38660462270843" fill="#cfddfa" data-idx="265" transform="matrix(1,0,0,1,-0.9740934371948242,0)">

</circle><circle cx="1958.7506372244575" cy="740.2541842679585" r="53.46344782720061" fill="#cfddfa" data-idx="267" transform="matrix(1,0,0,1,-0.40137195587158203,0)">

</circle><circle cx="0" cy="814.2829959349708" r="45.59750338752429" fill="#dfe5fb" data-idx="269" transform="matrix(1,0,0,1,-9.362674713134766,0)">

</circle><circle cx="45.59750338752429" cy="797.9031604362199" r="62.20178954206068" fill="#dfe5fb" data-idx="271" transform="matrix(1,0,0,1,-8.412837982177734,0)">

</circle><circle cx="107.79929292958496" cy="774.2280582047114" r="88.96678072101892" fill="#dfe5fb" data-idx="273" transform="matrix(1,0,0,1,-6.930164337158203,0)">

</circle><circle cx="196.7660736506039" cy="800.1299412265869" r="72.18762834909471" fill="#dfe5fb" data-idx="275" transform="matrix(1,0,0,1,-5.0215911865234375,0)">

</circle><circle cx="268.9537019996986" cy="824.719869748237" r="51.261549774476784" fill="#dfe5fb" data-idx="277" transform="matrix(1,0,0,1,-3.1075196266174316,0)">

</circle><circle cx="320.2152517741754" cy="837.8460690418362" r="38.95551564122921" fill="#dfe5fb" data-idx="279" transform="matrix(1,0,0,1,-1.6134405136108398,0)">

</circle><circle cx="359.1707674154046" cy="827.9190644941781" r="54.69898370837054" fill="#dfe5fb" data-idx="281" transform="matrix(1,0,0,1,-0.6526336669921875,0)">

</circle><circle cx="413.86975112377513" cy="844.6812783243776" r="35.62332864830422" fill="#dfe5fb" data-idx="283" transform="matrix(1,0,0,1,-0.14954757690429688,0)">

</circle><circle cx="449.49307977207934" cy="847.1801346496219" r="34.19325299745025" fill="#dfe5fb" data-idx="285" transform="matrix(1,0,0,1,-0.0000152587890625,0)">

</circle><circle cx="483.6863327695296" cy="839.4810899971415" r="49.57894267363189" fill="#dfe5fb" data-idx="287" transform="matrix(1,0,0,1,-0.14293266832828522,0)">

</circle><circle cx="533.2652754431615" cy="832.1447939034936" r="69.09249044081015" fill="#dfe5fb" data-idx="289" transform="matrix(1,0,0,1,-0.6373249888420105,0)">

</circle><circle cx="602.3577658839716" cy="835.6203631504669" r="74.66598441772159" fill="#dfe5fb" data-idx="291" transform="matrix(1,0,0,1,-1.587161898612976,0)">

</circle><circle cx="677.0237503016932" cy="842.8543494966895" r="73.91616937799" fill="#dfe5fb" data-idx="293" transform="matrix(1,0,0,1,-3.069835901260376,0)">

</circle><circle cx="750.9399196796833" cy="848.9606250708347" r="76.68369742692701" fill="#dfe5fb" data-idx="295" transform="matrix(1,0,0,1,-4.9784088134765625,0)">

</circle><circle cx="827.6236171066103" cy="861.6206524235673" r="44.5961578048296" fill="#dfe5fb" data-idx="297" transform="matrix(1,0,0,1,-6.892480373382568,0)">

</circle><circle cx="872.2197749114398" cy="863.4533773533803" r="50.55008816415096" fill="#dfe5fb" data-idx="299" transform="matrix(1,0,0,1,-8.38655948638916,0)">

</circle><circle cx="922.7698630755907" cy="865.1524754283818" r="82.67548581795782" fill="#dfe5fb" data-idx="301" transform="matrix(1,0,0,1,-9.347366333007812,0)">

</circle><circle cx="1005.4453488935485" cy="864.2150255909797" r="84.23259190248308" fill="#dfe5fb" data-idx="303" transform="matrix(1,0,0,1,-9.850452423095703,0)">

</circle><circle cx="1089.6779407960316" cy="862.203084834081" r="41.93104933157285" fill="#dfe5fb" data-idx="305" transform="matrix(1,0,0,1,-9.999984741210938,0)">

</circle><circle cx="1131.6089901276046" cy="855.5766199192143" r="62.576582128031475" fill="#dfe5fb" data-idx="307" transform="matrix(1,0,0,1,-9.857067108154297,0)">

</circle><circle cx="1194.185572255636" cy="844.7158697064347" r="82.95687922928684" fill="#dfe5fb" data-idx="309" transform="matrix(1,0,0,1,-9.362674713134766,0)">

</circle><circle cx="1277.142451484923" cy="845.9062951394169" r="58.2544651526881" fill="#dfe5fb" data-idx="311" transform="matrix(1,0,0,1,-8.412837982177734,0)">

</circle><circle cx="1335.396916637611" cy="843.4962926966195" r="54.35038205814649" fill="#dfe5fb" data-idx="313" transform="matrix(1,0,0,1,-6.930164337158203,0)">

</circle><circle cx="1389.7472986957575" cy="841.6959497712912" r="50.82810351399346" fill="#dfe5fb" data-idx="315" transform="matrix(1,0,0,1,-5.0215911865234375,0)">

</circle><circle cx="1440.575402209751" cy="841.570956228739" r="45.66033741242444" fill="#dfe5fb" data-idx="317" transform="matrix(1,0,0,1,-3.1075196266174316,0)">

</circle><circle cx="1486.2357396221755" cy="812.5519174515726" r="85.81413735061884" fill="#dfe5fb" data-idx="319" transform="matrix(1,0,0,1,-1.6134405136108398,0)">

</circle><circle cx="1572.0498769727944" cy="806.2290331964452" r="82.04686469543392" fill="#dfe5fb" data-idx="321" transform="matrix(1,0,0,1,-0.6526336669921875,0)">

</circle><circle cx="1654.0967416682283" cy="816.9840619507922" r="59.95237830875272" fill="#dfe5fb" data-idx="323" transform="matrix(1,0,0,1,-0.14954471588134766,0)">

</circle><circle cx="1714.049119976981" cy="837.1268285938065" r="33.81548555581256" fill="#dfe5fb" data-idx="325" transform="matrix(1,0,0,1,-0.0000152587890625,0)">

</circle><circle cx="1747.8646055327936" cy="816.2734658918172" r="53.53867528802257" fill="#dfe5fb" data-idx="327" transform="matrix(1,0,0,1,-0.14293266832828522,0)">

</circle><circle cx="1801.4032808208162" cy="827.8616223745257" r="39.114064385717604" fill="#dfe5fb" data-idx="329" transform="matrix(1,0,0,1,-0.6373249888420105,0)">

</circle><circle cx="1840.517345206534" cy="798.1862179835883" r="64.33834145520584" fill="#dfe5fb" data-idx="331" transform="matrix(1,0,0,1,-1.587161898612976,0)">

</circle><circle cx="1904.8556866617398" cy="813.3442385156976" r="47.12318485879189" fill="#dfe5fb" data-idx="333" transform="matrix(1,0,0,1,-3.069835901260376,0)">

</circle><circle cx="1951.9788715205318" cy="774.3300493239071" r="76.34836055004293" fill="#dfe5fb" data-idx="335" transform="matrix(1,0,0,1,-4.9784088134765625,0)">

</circle><circle cx="0" cy="836.7693692346174" r="78.52552563781877" fill="#ecedfc" data-idx="337" transform="matrix(1,0,0,1,-9.979307174682617,0)">

</circle><circle cx="78.52552563781877" cy="878.2636963623169" r="47.86189973416273" fill="#ecedfc" data-idx="339" transform="matrix(1,0,0,1,-9.610095024108887,0)">

</circle><circle cx="126.38742537198151" cy="896.6505501145411" r="32.96442585529521" fill="#ecedfc" data-idx="341" transform="matrix(1,0,0,1,-8.646490097045898,0)">

</circle><circle cx="159.3518512272767" cy="888.0952127535475" r="42.87005452991492" fill="#ecedfc" data-idx="343" transform="matrix(1,0,0,1,-6.933774948120117,0)">

</circle><circle cx="202.22190575719162" cy="868.6888135510737" r="65.78304326539208" fill="#ecedfc" data-idx="345" transform="matrix(1,0,0,1,-4.626362323760986,0)">

</circle><circle cx="268.0049490225837" cy="859.1826746176844" r="83.02640347600914" fill="#ecedfc" data-idx="347" transform="matrix(1,0,0,1,-2.4494166374206543,0)">

</circle><circle cx="351.0313524985928" cy="865.178380284736" r="86.46963351604985" fill="#ecedfc" data-idx="349" transform="matrix(1,0,0,1,-0.9779624938964844,0)">

</circle><circle cx="437.50098601464265" cy="894.832126247022" r="55.37675331037717" fill="#ecedfc" data-idx="351" transform="matrix(1,0,0,1,-0.21953964233398438,0)">

</circle><circle cx="492.87773932501983" cy="885.8365185501432" r="77.34759869434893" fill="#ecedfc" data-idx="353" transform="matrix(1,0,0,1,-0.00002193450927734375,0)">

</circle><circle cx="570.2253380193688" cy="891.8294217065893" r="80.39635638574617" fill="#ecedfc" data-idx="355" transform="matrix(1,0,0,1,-0.20979958772659302,0)">

</circle><circle cx="650.621694405115" cy="906.4480321709568" r="63.487238465111446" fill="#ecedfc" data-idx="357" transform="matrix(1,0,0,1,-0.9547793865203857,0)">

</circle><circle cx="714.1089328702265" cy="902.8367647630505" r="91.62833140932558" fill="#ecedfc" data-idx="359" transform="matrix(1,0,0,1,-2.409641981124878,0)">

</circle><circle cx="805.737264279552" cy="919.0064637168773" r="62.197970116942" fill="#ecedfc" data-idx="361" transform="matrix(1,0,0,1,-4.575180530548096,0)">

</circle><circle cx="867.935234396494" cy="924.4818225853699" r="56.63993056976296" fill="#ecedfc" data-idx="363" transform="matrix(1,0,0,1,-6.888857364654541,0)">

</circle><circle cx="924.575164966257" cy="927.4831335843382" r="79.42148862089297" fill="#ecedfc" data-idx="365" transform="matrix(1,0,0,1,-8.617958068847656,0)">

</circle><circle cx="1003.99665358715" cy="928.4944506225996" r="45.55890820082128" fill="#ecedfc" data-idx="367" transform="matrix(1,0,0,1,-9.596327781677246,0)">

</circle><circle cx="1049.5555617879713" cy="921.6324002237485" r="83.68078622234479" fill="#ecedfc" data-idx="369" transform="matrix(1,0,0,1,-9.976408004760742,0)">

</circle><circle cx="1133.236348010316" cy="915.6735165141512" r="70.77721811561699" fill="#ecedfc" data-idx="371" transform="matrix(1,0,0,1,-9.911215782165527,0)">

</circle><circle cx="1204.013566125933" cy="918.2906544420139" r="41.66766876043903" fill="#ecedfc" data-idx="373" transform="matrix(1,0,0,1,-9.364128112792969,0)">

</circle><circle cx="1245.681234886372" cy="903.599954635426" r="76.72900287055181" fill="#ecedfc" data-idx="375" transform="matrix(1,0,0,1,-8.162342071533203,0)">

</circle><circle cx="1322.4102377569238" cy="915.1596628262859" r="34.966643926518714" fill="#ecedfc" data-idx="377" transform="matrix(1,0,0,1,-6.204457759857178,0)">

</circle><circle cx="1357.3768816834427" cy="889.4308906906812" r="83.68702101282975" fill="#ecedfc" data-idx="379" transform="matrix(1,0,0,1,-3.844456672668457,0)">

</circle><circle cx="1441.0639026962724" cy="894.6799366029717" r="60.39956553540802" fill="#ecedfc" data-idx="381" transform="matrix(1,0,0,1,-1.8717927932739258,0)">

</circle><circle cx="1501.4634682316805" cy="871.0724639304807" r="88.54157605901874" fill="#ecedfc" data-idx="383" transform="matrix(1,0,0,1,-0.6541070938110352,0)">

</circle><circle cx="1590.0050442906993" cy="884.9279764273834" r="58.50368848965316" fill="#ecedfc" data-idx="385" transform="matrix(1,0,0,1,-0.09491348266601562,0)">

</circle><circle cx="1648.5087327803524" cy="861.3910640074275" r="80.88081696390515" fill="#ecedfc" data-idx="387" transform="matrix(1,0,0,1,-0.020693635568022728,0)">

</circle><circle cx="1729.3895497442575" cy="891.2922674993135" r="41.287519451113035" fill="#ecedfc" data-idx="389" transform="matrix(1,0,0,1,-0.3899073898792267,0)">

</circle><circle cx="1770.6770691953704" cy="843.3169078734853" r="86.52825689375297" fill="#ecedfc" data-idx="391" transform="matrix(1,0,0,1,-1.3535282611846924,0)">

</circle><circle cx="1857.2053260891234" cy="850.5118010265909" r="71.76791901069376" fill="#ecedfc" data-idx="393" transform="matrix(1,0,0,1,-3.0662522315979004,0)">

</circle><circle cx="1928.9732450998172" cy="862.4002032552885" r="56.637102905886564" fill="#ecedfc" data-idx="395" transform="matrix(1,0,0,1,-5.373671054840088,0)">

</circle><circle cx="1985.6103480057038" cy="890.2941028710399" r="31.751549471483074" fill="#ecedfc" data-idx="397" transform="matrix(1,0,0,1,-7.550607204437256,0)">

</circle><circle cx="0" cy="924.0408236405332" r="57.46598029955571" fill="#f7f5fd" data-idx="399" transform="matrix(1,0,0,1,-9.779630661010742,0)">

</circle><circle cx="57.46598029955571" cy="900.2595795213359" r="82.20447624517918" fill="#f7f5fd" data-idx="401" transform="matrix(1,0,0,1,-9.995362281799316,0)">

</circle><circle cx="139.6704565447349" cy="930.9295225884247" r="60.53223649620781" fill="#f7f5fd" data-idx="403" transform="matrix(1,0,0,1,-9.61124324798584,0)">

</circle><circle cx="200.2026930409427" cy="941.1135887303067" r="54.63184540872744" fill="#f7f5fd" data-idx="405" transform="matrix(1,0,0,1,-8.417976379394531,0)">

</circle><circle cx="254.83453844967016" cy="955.1088752287778" r="42.98693210290505" fill="#f7f5fd" data-idx="407" transform="matrix(1,0,0,1,-6.208596706390381,0)">

</circle><circle cx="297.8214705525752" cy="962.6731197307469" r="36.63891705405838" fill="#f7f5fd" data-idx="409" transform="matrix(1,0,0,1,-3.4740419387817383,0)">

</circle><circle cx="334.46038760663356" cy="922.6022483801194" r="90.03139078663044" fill="#f7f5fd" data-idx="411" transform="matrix(1,0,0,1,-1.3844709396362305,0)">

</circle><circle cx="424.491778393264" cy="939.9752628971617" r="79.21407733945632" fill="#f7f5fd" data-idx="413" transform="matrix(1,0,0,1,-0.30475521087646484,0)">

</circle><circle cx="503.7058557327203" cy="942.2569497811198" r="88.96550763387724" fill="#f7f5fd" data-idx="415" transform="matrix(1,0,0,1,-0.000030517578125,0)">

</circle><circle cx="592.6713633665976" cy="951.8416504929448" r="89.63820492575769" fill="#f7f5fd" data-idx="417" transform="matrix(1,0,0,1,-0.29108190536499023,0)">

</circle><circle cx="682.3095682923553" cy="977.8913761874836" r="43.52652331477649" fill="#f7f5fd" data-idx="419" transform="matrix(1,0,0,1,-1.3511276245117188,0)">

</circle><circle cx="725.8360916071317" cy="972.8486879678977" r="68.84515097277378" fill="#f7f5fd" data-idx="421" transform="matrix(1,0,0,1,-3.4189817905426025,0)">

</circle><circle cx="794.6812425799055" cy="977.8200597700973" r="73.45779978894342" fill="#f7f5fd" data-idx="423" transform="matrix(1,0,0,1,-6.1513991355896,0)">

</circle><circle cx="868.139042368849" cy="988.8040638917028" r="36.54162740297313" fill="#f7f5fd" data-idx="425" transform="matrix(1,0,0,1,-8.381370544433594,0)">

</circle><circle cx="904.6806697718222" cy="988.7616571376373" r="61.292757448519026" fill="#f7f5fd" data-idx="427" transform="matrix(1,0,0,1,-9.59515380859375,0)">

</circle><circle cx="965.9734272203413" cy="992.3823925745771" r="82.7139801177716" fill="#f7f5fd" data-idx="429" transform="matrix(1,0,0,1,-9.993714332580566,0)">

</circle><circle cx="1048.6874073381127" cy="988.0870528171714" r="44.31697649339051" fill="#f7f5fd" data-idx="431" transform="matrix(1,0,0,1,-9.79101276397705,0)">

</circle><circle cx="1093.0043838315032" cy="979.4267126683544" r="81.64114258874896" fill="#f7f5fd" data-idx="433" transform="matrix(1,0,0,1,-8.858392715454102,0)">

</circle><circle cx="1174.6455264202523" cy="976.0221751565065" r="63.27762847571433" fill="#f7f5fd" data-idx="435" transform="matrix(1,0,0,1,-6.937527656555176,0)">

</circle><circle cx="1237.9231548959667" cy="976.2408500820547" r="48.2411044138258" fill="#f7f5fd" data-idx="437" transform="matrix(1,0,0,1,-4.235410690307617,0)">

</circle><circle cx="1286.1642593097924" cy="962.6561795886347" r="74.4258625407381" fill="#f7f5fd" data-idx="439" transform="matrix(1,0,0,1,-1.8746871948242188,0)">

</circle><circle cx="1360.5901218505305" cy="963.727595238651" r="58.45856533081707" fill="#f7f5fd" data-idx="441" transform="matrix(1,0,0,1,-0.5215158462524414,0)">

</circle><circle cx="1419.0486871813475" cy="941.9820089881032" r="88.91081479859174" fill="#f7f5fd" data-idx="443" transform="matrix(1,0,0,1,-0.023843765258789062,0)">

</circle><circle cx="1507.9595019799392" cy="957.2766980202276" r="52.15466011731671" fill="#f7f5fd" data-idx="445" transform="matrix(1,0,0,1,-0.14165256917476654,0)">

</circle><circle cx="1560.114162097256" cy="938.5530213558795" r="72.58216130589712" fill="#f7f5fd" data-idx="447" transform="matrix(1,0,0,1,-0.9528404474258423,0)">

</circle><circle cx="1632.6963234031532" cy="921.5368813295072" r="84.98707804313567" fill="#f7f5fd" data-idx="449" transform="matrix(1,0,0,1,-2.7243094444274902,0)">

</circle><circle cx="1717.6834014462888" cy="952.7943170643637" r="42.45116929724523" fill="#f7f5fd" data-idx="451" transform="matrix(1,0,0,1,-5.3693318367004395,0)">

</circle><circle cx="1760.1345707435341" cy="945.7982150955364" r="47.19384626573583" fill="#f7f5fd" data-idx="453" transform="matrix(1,0,0,1,-7.847201347351074,0)">

</circle><circle cx="1807.32841700927" cy="947.704264215188" r="42.76569497781067" fill="#f7f5fd" data-idx="455" transform="matrix(1,0,0,1,-9.344346046447754,0)">

</circle><circle cx="1850.0941119870806" cy="915.6315170385346" r="69.53735064149119" fill="#f7f5fd" data-idx="457" transform="matrix(1,0,0,1,-9.946662902832031,0)">

</circle><circle cx="1919.6314626285719" cy="923.465977128534" r="57.96727229513895" fill="#f7f5fd" data-idx="459" transform="matrix(1,0,0,1,-9.911720275878906,0)">

</circle><circle cx="0" cy="978.5797860207688" r="63.68351164935932" fill="#ffffff" data-idx="461" transform="matrix(1,0,0,1,-8.613227844238281,0)">

</circle><circle cx="63.68351164935932" cy="1004.5686108368203" r="45.01212669286595" fill="#ffffff" data-idx="463" transform="matrix(1,0,0,1,-9.77883529663086,0)">

</circle><circle cx="108.69563834222527" cy="958.8290482111813" r="90.3751524087499" fill="#ffffff" data-idx="465" transform="matrix(1,0,0,1,-9.979764938354492,0)">

</circle><circle cx="199.07079075097516" cy="1007.3061662755023" r="50.14272880555359" fill="#ffffff" data-idx="467" transform="matrix(1,0,0,1,-9.367110252380371,0)">

</circle><circle cx="249.21351955652875" cy="1021.0656593419791" r="38.19356905814944" fill="#ffffff" data-idx="469" transform="matrix(1,0,0,1,-7.5968780517578125,0)">

</circle><circle cx="287.4070886146782" cy="977.8117115276686" r="91.80981501972565" fill="#ffffff" data-idx="471" transform="matrix(1,0,0,1,-4.634789943695068,0)">

</circle><circle cx="379.2169036344038" cy="1025.4741676936098" r="40.67037417742461" fill="#ffffff" data-idx="473" transform="matrix(1,0,0,1,-1.8774614334106445,0)">

</circle><circle cx="419.8872778118284" cy="1002.0608592742726" r="78.4119885363985" fill="#ffffff" data-idx="475" transform="matrix(1,0,0,1,-0.40596675872802734,0)">

</circle><circle cx="498.2992663482269" cy="1010.3838234733407" r="77.3075254592252" fill="#ffffff" data-idx="477" transform="matrix(1,0,0,1,-0.00003910064697265625,0)">

</circle><circle cx="575.6067918074522" cy="1012.8727955730155" r="87.67523156836296" fill="#ffffff" data-idx="479" transform="matrix(1,0,0,1,-0.3876706659793854,0)">

</circle><circle cx="663.2820233758151" cy="1030.4514732248851" r="66.18682711282396" fill="#ffffff" data-idx="481" transform="matrix(1,0,0,1,-1.8320720195770264,0)">

</circle><circle cx="729.4688504886391" cy="1037.8674068973805" r="59.45432758717077" fill="#ffffff" data-idx="483" transform="matrix(1,0,0,1,-4.566778182983398,0)">

</circle><circle cx="788.9231780758098" cy="1044.068140243251" r="51.12023772147617" fill="#ffffff" data-idx="485" transform="matrix(1,0,0,1,-7.544021129608154,0)">

</circle><circle cx="840.043415797286" cy="1042.86093707243" r="80.95637606390211" fill="#ffffff" data-idx="487" transform="matrix(1,0,0,1,-9.342862129211426,0)">

</circle><circle cx="920.9997918611881" cy="1052.4592465000167" r="52.11774236568499" fill="#ffffff" data-idx="489" transform="matrix(1,0,0,1,-9.975914001464844,0)">

</circle><circle cx="973.1175342268731" cy="1053.8382523871592" r="70.85158492429471" fill="#ffffff" data-idx="491" transform="matrix(1,0,0,1,-9.791779518127441,0)">

</circle><circle cx="1043.969119151168" cy="1048.6890398932128" r="60.12648621859006" fill="#ffffff" data-idx="493" transform="matrix(1,0,0,1,-8.651142120361328,0)">

</circle><circle cx="1104.095605369758" cy="1041.9185028826078" r="72.62676517482532" fill="#ffffff" data-idx="495" transform="matrix(1,0,0,1,-6.212496757507324,0)">

</circle><circle cx="1176.7223705445833" cy="1036.190759259477" r="69.43165375409588" fill="#ffffff" data-idx="497" transform="matrix(1,0,0,1,-3.118533134460449,0)">

</circle><circle cx="1246.1540242986791" cy="1032.6830063324398" r="62.39155635782051" fill="#ffffff" data-idx="499" transform="matrix(1,0,0,1,-0.9817895889282227,0)">

</circle><circle cx="1308.5455806564996" cy="1024.1017003890972" r="70.91938920058512" fill="#ffffff" data-idx="501" transform="matrix(1,0,0,1,-0.09594058990478516,0)">

</circle><circle cx="1379.4649698570847" cy="1033.930140169444" r="40.18425631629656" fill="#ffffff" data-idx="503" transform="matrix(1,0,0,1,-0.0878000408411026,0)">

</circle><circle cx="1419.6492261733813" cy="1032.032666856953" r="39.97367006880786" fill="#ffffff" data-idx="505" transform="matrix(1,0,0,1,-0.9510075449943542,0)">

</circle><circle cx="1459.6228962421892" cy="1025.6906553117385" r="46.93034672142643" fill="#ffffff" data-idx="507" transform="matrix(1,0,0,1,-3.0588936805725098,0)">

</circle><circle cx="1506.5532429636157" cy="996.62759617648" r="85.44075743765127" fill="#ffffff" data-idx="509" transform="matrix(1,0,0,1,-6.147485733032227,0)">

</circle><circle cx="1591.994000401267" cy="1029.6348360459426" r="32.10810727690763" fill="#ffffff" data-idx="511" transform="matrix(1,0,0,1,-8.61324405670166,0)">

</circle><circle cx="1624.1021076781747" cy="991.9729954722324" r="75.92447462408677" fill="#ffffff" data-idx="513" transform="matrix(1,0,0,1,-9.778841018676758,0)">

</circle><circle cx="1700.0265823022614" cy="1025.476236066221" r="31.916436127933743" fill="#ffffff" data-idx="515" transform="matrix(1,0,0,1,-9.979762077331543,0)">

</circle><circle cx="1731.9430184301953" cy="1006.8999466094564" r="49.848294231207646" fill="#ffffff" data-idx="517" transform="matrix(1,0,0,1,-9.36708927154541,0)">

</circle><circle cx="1781.7913126614028" cy="1008.7929645282067" r="44.98177068545553" fill="#ffffff" data-idx="519" transform="matrix(1,0,0,1,-7.596834182739258,0)">

</circle><circle cx="1826.7730833468584" cy="1007.2683036994025" r="44.0546179549478" fill="#ffffff" data-idx="521" transform="matrix(1,0,0,1,-4.634732723236084,0)">

</circle><circle cx="1870.8277013018062" cy="974.034564473646" r="71.11372252787972" fill="#ffffff" data-idx="523" transform="matrix(1,0,0,1,-1.8774232864379883,0)">

</circle><circle cx="1941.9414238296858" cy="975.8263897970817" r="64.5037337515568" fill="#ffffff" data-idx="525" transform="matrix(1,0,0,1,-0.40595149993896484,0)">

</circle><g data-idx="527"></g></g><text data-watermark="true" text-anchor="middle" dominant-baseline="middle" stroke-opacity="0.1" fill="black" fill-opacity="0.1" stroke="white" stroke-width="1" font-size="15.0" x="960.0" y="496.5" data-idx="528" style="opacity: 1; font-size: 15px;"></text></svg>